HIERARCHY
ROOT Hips
{
    OFFSET   0.000000   0.000000   0.000000
    CHANNELS 6 Xposition Yposition Zposition Zrotation Xrotation Yrotation
    JOINT Chest
    {
        OFFSET   0.000000   8.007240   0.000000
        CHANNELS 3 Zrotation Xrotation Yrotation
        JOINT Chest2
        {
            OFFSET   0.000000  22.077100   0.000000
            CHANNELS 3 Zrotation Xrotation Yrotation
            JOINT Neck
            {
                OFFSET   0.000000  23.254800   0.000000
                CHANNELS 3 Zrotation Xrotation Yrotation
                JOINT Head
                {
                    OFFSET   0.000000  14.370000   1.956600
                    CHANNELS 3 Zrotation Xrotation Yrotation
                    End Site
                    {
                        OFFSET   0.000000  19.566000   0.000000
                    }
                }
            }
            JOINT LeftCollar
            {
                OFFSET   3.911900  19.017000  -0.467064
                CHANNELS 3 Zrotation Xrotation Yrotation
                JOINT LeftShoulder
                {
                    OFFSET  10.383700   0.000000   0.000000
                    CHANNELS 3 Zrotation Xrotation Yrotation
                    JOINT LeftElbow
                    {
                        OFFSET  26.662100   0.001476   0.000517
                        CHANNELS 3 Zrotation Xrotation Yrotation
                        JOINT LeftWrist
                        {
                            OFFSET  28.869000  -0.000025  -0.000106
                            CHANNELS 3 Zrotation Xrotation Yrotation
                            JOINT LeftFinger0
                            {
                                OFFSET   2.044660  -2.323460   3.252850
                                CHANNELS 3 Zrotation Xrotation Yrotation
                                JOINT LeftFinger01
                                {
                                    OFFSET   3.088130   0.000000   0.000000
                                    CHANNELS 3 Zrotation Xrotation Yrotation
                                    JOINT LeftFinger02
                                    {
                                        OFFSET   2.639460   0.000000   0.000000
                                        CHANNELS 3 Zrotation Xrotation Yrotation
                                        End Site
                                        {
                                            OFFSET   2.582190   0.000000   0.000000
                                        }
                                    }
                                }
                            }
                            JOINT LeftFinger1
                            {
                                OFFSET   8.364480   0.000000   3.252850
                                CHANNELS 3 Zrotation Xrotation Yrotation
                                JOINT LeftFinger11
                                {
                                    OFFSET   4.646930   0.000000   0.000000
                                    CHANNELS 3 Zrotation Xrotation Yrotation
                                    JOINT LeftFinger12
                                    {
                                        OFFSET   2.323460   0.000000   0.000000
                                        CHANNELS 3 Zrotation Xrotation Yrotation
                                        End Site
                                        {
                                            OFFSET   2.273050   0.000000   0.000000
                                        }
                                    }
                                }
                            }
                            JOINT LeftFinger2
                            {
                                OFFSET   8.364490   0.000015   1.078090
                                CHANNELS 3 Zrotation Xrotation Yrotation
                                JOINT LeftFinger21
                                {
                                    OFFSET   5.111620   0.000000   0.000000
                                    CHANNELS 3 Zrotation Xrotation Yrotation
                                    JOINT LeftFinger22
                                    {
                                        OFFSET   2.788160   0.000016   0.000000
                                        CHANNELS 3 Zrotation Xrotation Yrotation
                                        End Site
                                        {
                                            OFFSET   2.727660   0.000000   0.000000
                                        }
                                    }
                                }
                            }
                            JOINT LeftFinger3
                            {
                                OFFSET   7.899780   0.000017  -1.078090
                                CHANNELS 3 Zrotation Xrotation Yrotation
                                JOINT LeftFinger31
                                {
                                    OFFSET   4.646930   0.000000   0.000000
                                    CHANNELS 3 Zrotation Xrotation Yrotation
                                    JOINT LeftFinger32
                                    {
                                        OFFSET   2.323470   0.000000   0.000000
                                        CHANNELS 3 Zrotation Xrotation Yrotation
                                        End Site
                                        {
                                            OFFSET   2.273050   0.000000   0.000000
                                        }
                                    }
                                }
                            }
                            JOINT LeftFinger4
                            {
                                OFFSET   7.435090   0.000000  -3.252850
                                CHANNELS 3 Zrotation Xrotation Yrotation
                                JOINT LeftFinger41
                                {
                                    OFFSET   3.717550   0.000000   0.000000
                                    CHANNELS 3 Zrotation Xrotation Yrotation
                                    JOINT LeftFinger42
                                    {
                                        OFFSET   1.858770   0.000000   0.000000
                                        CHANNELS 3 Zrotation Xrotation Yrotation
                                        End Site
                                        {
                                            OFFSET   1.818440   0.000000   0.000000
                                        }
                                    }
                                }
                            }
                        }
                    }
                }
            }
            JOINT RightCollar
            {
                OFFSET  -3.911900  19.017000  -0.467063
                CHANNELS 3 Zrotation Xrotation Yrotation
                JOINT RightShoulder
                {
                    OFFSET -10.383700   0.000019   0.000000
                    CHANNELS 3 Zrotation Xrotation Yrotation
                    JOINT RightElbow
                    {
                        OFFSET -26.662100   0.001175   0.000102
                        CHANNELS 3 Zrotation Xrotation Yrotation
                        JOINT RightWrist
                        {
                            OFFSET -28.869000   0.000016  -0.000079
                            CHANNELS 3 Zrotation Xrotation Yrotation
                            JOINT RightFinger0
                            {
                                OFFSET  -2.044660  -2.323490   3.252850
                                CHANNELS 3 Zrotation Xrotation Yrotation
                                JOINT RightFinger01
                                {
                                    OFFSET  -3.088140   0.000000   0.000000
                                    CHANNELS 3 Zrotation Xrotation Yrotation
                                    JOINT RightFinger02
                                    {
                                        OFFSET  -2.639460   0.000000   0.000000
                                        CHANNELS 3 Zrotation Xrotation Yrotation
                                        End Site
                                        {
                                            OFFSET  -2.582190   0.000000   0.000000
                                        }
                                    }
                                }
                            }
                            JOINT RightFinger1
                            {
                                OFFSET  -8.364480   0.000000   3.252850
                                CHANNELS 3 Zrotation Xrotation Yrotation
                                JOINT RightFinger11
                                {
                                    OFFSET  -4.646930   0.000000   0.000000
                                    CHANNELS 3 Zrotation Xrotation Yrotation
                                    JOINT RightFinger12
                                    {
                                        OFFSET  -2.323470   0.000000   0.000000
                                        CHANNELS 3 Zrotation Xrotation Yrotation
                                        End Site
                                        {
                                            OFFSET  -2.273050   0.000000   0.000000
                                        }
                                    }
                                }
                            }
                            JOINT RightFinger2
                            {
                                OFFSET  -8.364480   0.000000   1.078090
                                CHANNELS 3 Zrotation Xrotation Yrotation
                                JOINT RightFinger21
                                {
                                    OFFSET  -5.111620   0.000000   0.000000
                                    CHANNELS 3 Zrotation Xrotation Yrotation
                                    JOINT RightFinger22
                                    {
                                        OFFSET  -2.788160   0.000000   0.000000
                                        CHANNELS 3 Zrotation Xrotation Yrotation
                                        End Site
                                        {
                                            OFFSET  -2.727660   0.000000   0.000000
                                        }
                                    }
                                }
                            }
                            JOINT RightFinger3
                            {
                                OFFSET  -7.899780   0.000000  -1.078090
                                CHANNELS 3 Zrotation Xrotation Yrotation
                                JOINT RightFinger31
                                {
                                    OFFSET  -4.646930   0.000000   0.000000
                                    CHANNELS 3 Zrotation Xrotation Yrotation
                                    JOINT RightFinger32
                                    {
                                        OFFSET  -2.323470   0.000000   0.000000
                                        CHANNELS 3 Zrotation Xrotation Yrotation
                                        End Site
                                        {
                                            OFFSET  -2.273050   0.000000   0.000000
                                        }
                                    }
                                }
                            }
                            JOINT RightFinger4
                            {
                                OFFSET  -7.435090   0.000000  -3.252850
                                CHANNELS 3 Zrotation Xrotation Yrotation
                                JOINT RightFinger41
                                {
                                    OFFSET  -3.717550   0.000000   0.000000
                                    CHANNELS 3 Zrotation Xrotation Yrotation
                                    JOINT RightFinger42
                                    {
                                        OFFSET  -1.858770   0.000000   0.000000
                                        CHANNELS 3 Zrotation Xrotation Yrotation
                                        End Site
                                        {
                                            OFFSET  -1.818440   0.000000   0.000000
                                        }
                                    }
                                }
                            }
                        }
                    }
                }
            }
        }
    }
    JOINT LeftHip
    {
        OFFSET   9.783040   0.000000   0.000000
        CHANNELS 3 Zrotation Xrotation Yrotation
        JOINT LeftKnee
        {
            OFFSET   0.000032 -41.789100  -0.002222
            CHANNELS 3 Zrotation Xrotation Yrotation
            JOINT LeftAnkle
            {
                OFFSET   0.000087 -41.133200  -0.000135
                CHANNELS 3 Zrotation Xrotation Yrotation
                JOINT LeftToe
                {
                    OFFSET   0.000000  -6.358960  14.674500
                    CHANNELS 3 Zrotation Xrotation Yrotation
                    End Site
                    {
                        OFFSET   0.000000   0.000000   3.913200
                    }
                }
            }
        }
    }
    JOINT RightHip
    {
        OFFSET  -9.783040   0.000000   0.000000
        CHANNELS 3 Zrotation Xrotation Yrotation
        JOINT RightKnee
        {
            OFFSET   0.000047 -41.789100  -0.000896
            CHANNELS 3 Zrotation Xrotation Yrotation
            JOINT RightAnkle
            {
                OFFSET  -0.000117 -41.133300  -0.000248
                CHANNELS 3 Zrotation Xrotation Yrotation
                JOINT RightToe
                {
                    OFFSET   0.000000  -6.358970  14.674500
                    CHANNELS 3 Zrotation Xrotation Yrotation
                    End Site
                    {
                        OFFSET   0.000000   0.000000   3.913200
                    }
                }
            }
        }
    }
}
MOTION
Frames: 5
Frame Time:   0.016667
 -0.136682  89.537400   0.453668  -2.608950  -4.163980  -0.237381   0.509316   2.942640  -0.161004   1.028960   5.883710  -0.348927   0.122570   0.273291  -0.005686   0.199192   0.553833   3.547920  -4.552340   0.085463   0.578927 -74.238900   7.402480   0.165300  -1.663240  -1.621990 -12.913100  11.782200  -2.138860  -3.513210  41.681000  27.925100 -56.993800 -23.618500   0.001873   0.001497  -6.809260   0.002429   0.000132 -26.795000   2.699790  -5.328440 -22.025900  -0.000604   0.005201 -15.418200   0.003855   0.006474 -27.616500  -0.327227   0.625145 -29.857400  -0.000576   0.005275 -19.885000  -0.005776   0.002901 -26.538500  -0.315290   0.631261 -26.540300   0.000000   0.007539 -17.675800  -0.001201   0.005185 -25.042800  -0.298702   0.639282 -37.566700   0.001315   0.000853 -25.019400   0.000397   0.000885  10.349200   1.817500   4.854960  68.910300   1.648050  -6.842840   1.372530  -8.341270   7.685290 -11.897000  -3.272930   0.662619 -40.192100  18.838300  54.779900  15.583500   0.003199  -0.009583   2.791770   0.004884  -0.004778  25.898200   4.474960   9.129230  21.481900  -0.001481   0.000991  15.037300   0.008430  -0.003710  27.889100   4.138100   7.773820  33.128400  -0.005443  -0.003307  22.063500  -0.005040  -0.001140  25.538500   1.551820   3.253930  25.582500  -0.000643  -0.000791  17.037900   0.000906  -0.003625  26.581600   0.710501   1.432650  39.885500  -0.004915  -0.007411  26.563700  -0.003819  -0.001458   2.349220   6.351840   1.493290   0.404886   0.053515  13.095400  -0.765210  -2.868270   2.156150  -0.000000   0.000000  -0.000000   1.964770   6.528300  -4.539130   0.316714   0.517003 -16.926000   0.618129  -2.939880   2.019420   0.000000   0.000000   0.000000
 -0.136439  89.537900   0.441799  -2.611380  -4.186500  -0.250961   0.509374   2.952290  -0.164994   1.029280   5.902990  -0.356917   0.122427   0.265875  -0.005684   0.199362   0.538858   3.554650  -4.557610   0.079054   0.578568 -74.216000   7.406930   0.174173  -1.663380  -1.600750 -12.905000  11.783200  -2.126360  -3.521510  41.687300  27.912700 -56.964700 -23.601300   0.001876   0.001492  -6.800640   0.002429   0.000136 -26.774000   2.702910  -5.338870 -22.009000  -0.000608   0.005192 -15.406300   0.003853   0.006472 -27.616700  -0.320114   0.611681 -29.827600  -0.000577   0.005272 -19.865100  -0.005777   0.002898 -26.523800  -0.308343   0.617709 -26.525500   0.000000   0.007538 -17.666000  -0.001190   0.005184 -25.025700  -0.292090   0.625560 -37.540900   0.001319   0.000846 -25.002200   0.000402   0.000882  10.339200   1.811160   4.865810  68.915100   1.659930  -6.831240   1.381480  -8.349410   7.665930 -11.874800  -3.285790   0.654568 -40.181400  18.833800  54.794500  15.605200   0.003201  -0.009584   2.802610   0.004885  -0.004776  25.918900   4.457670   9.086370  21.496300  -0.001482   0.000996  15.047400   0.008434  -0.003712  27.888700   4.140580   7.774720  33.153000  -0.005445  -0.003308  22.079900  -0.005041  -0.001136  25.546600   1.553710   3.254490  25.590700  -0.000643  -0.000787  17.043400   0.000905  -0.003620  26.587000   0.711953   1.432570  39.893800  -0.004915  -0.007420  26.569200  -0.003818  -0.001455   2.347710   6.377550   1.498450   0.408199   0.027371  13.103300  -0.761709  -2.846160   2.156360  -0.000000   0.000000   0.000000   1.970260   6.549290  -4.528700   0.312883   0.501878 -16.942200   0.613174  -2.923260   2.039160   0.000000   0.000000   0.000000
 -0.136196  89.538800   0.421906  -2.616240  -4.225950  -0.272486   0.509516   2.969130  -0.170159   1.029970   5.936640  -0.367534   0.122284   0.254469  -0.005682   0.200042   0.515739   3.561380  -4.565560   0.066348   0.578210 -74.180300   7.421180   0.183050  -1.663090  -1.578160 -12.892500  11.787000  -2.113860  -3.534020  41.693700  27.888300 -56.917700 -23.575400   0.001884   0.001485  -6.787680   0.002430   0.000147 -26.752500   2.708370  -5.355080 -21.992100  -0.000615   0.005172 -15.394500   0.003851   0.006466 -27.616900  -0.308611   0.589849 -29.797800  -0.000578   0.005264 -19.845300  -0.005779   0.002892 -26.509200  -0.297154   0.595714 -26.510700   0.000000   0.007536 -17.656200  -0.001179   0.005182 -25.008600  -0.281449   0.603291 -37.515100   0.001330   0.000825 -24.985000   0.000417   0.000874  10.324400   1.795980   4.882070  68.925500   1.688760  -6.819710   1.396440  -8.362670   7.634250 -11.839000  -3.298640   0.642932 -40.164200  18.834200  54.823600  15.626900   0.003205  -0.009591   2.813460   0.004889  -0.004774  25.939500   4.440370   9.043520  21.510700  -0.001484   0.001008  15.057500   0.008442  -0.003719  27.887400   4.146710   7.780870  33.177600  -0.005451  -0.003311  22.096300  -0.005045  -0.001126  25.554500   1.559840   3.258340  25.598900  -0.000645  -0.000776  17.048900   0.000904  -0.003607  26.592400   0.717279   1.432490  39.902000  -0.004915  -0.007443  26.574700  -0.003816  -0.001445   2.345410   6.418280   1.507070   0.411838  -0.000148  13.115200  -0.757656  -2.814280   2.156690  -0.000000   0.000000   0.000000   1.980130   6.578170  -4.518360   0.309114   0.486735 -16.966700   0.605625  -2.906620   2.072010  -0.000000   0.000000   0.000000
 -0.137553  89.539400   0.405601  -2.621930  -4.260760  -0.288135   0.509967   2.983690  -0.171531   1.031060   5.965720  -0.370606   0.122616   0.248054  -0.005683   0.202091   0.502405   3.554070  -4.569590   0.052775   0.580274 -74.157200   7.443510   0.180076  -1.655130  -1.576610 -12.883100  11.810400  -2.147770  -3.539530  41.688000  27.852700 -56.874800 -23.559700   0.001893   0.001483  -6.779630   0.002425   0.000166 -26.752100   2.712350  -5.363880 -21.992300  -0.000626   0.005142 -15.394600   0.003851   0.006458 -27.617800  -0.300856   0.575016 -29.801900  -0.000576   0.005252 -19.848100  -0.005787   0.002881 -26.512800  -0.289706   0.580718 -26.514200   0.000035   0.007536 -17.658500  -0.001187   0.005169 -25.011000  -0.274384   0.588112 -37.518600   0.001348   0.000791 -24.987400   0.000440   0.000859  10.315000   1.776490   4.889670  68.940700   1.727200  -6.819920   1.408430  -8.374910   7.610500 -11.806700  -3.296650   0.637985 -40.162600  18.860400  54.861400  15.618200   0.003211  -0.009606   2.809140   0.004896  -0.004795  25.927600   4.449540   9.066560  21.501900  -0.001489   0.001030  15.051300   0.008453  -0.003732  27.884800   4.158820   7.803870  33.158000  -0.005460  -0.003317  22.083200  -0.005053  -0.001106  25.549700   1.572660   3.283100  25.594700  -0.000646  -0.000758  17.046100   0.000903  -0.003586  26.585900   0.729449   1.453350  39.892700  -0.004914  -0.007479  26.568500  -0.003811  -0.001429   2.345080   6.444970   1.514660   0.415564  -0.001752  13.122500  -0.757098  -2.800430   2.156970  -0.000000   0.000000   0.000000   1.988660   6.583790  -4.519170   0.306060   0.514710 -16.980400   0.601419  -2.908170   2.098710  -0.000000   0.000000   0.000000
 -0.140363  89.539900   0.389473  -2.628310  -4.299360  -0.300933   0.511203   3.000220  -0.171729   1.033570   5.998770  -0.371065   0.123258   0.241376  -0.005683   0.204218   0.488686   3.539930  -4.573800   0.035085   0.585375 -74.136200   7.480900   0.170683  -1.639460  -1.576410 -12.878100  11.840000  -2.204620  -3.547140  41.682100  27.829100 -56.849900 -23.549300   0.001907   0.001482  -6.774650   0.002417   0.000191 -26.753600   2.718490  -5.374710 -21.993800  -0.000641   0.005103 -15.395600   0.003851   0.006448 -27.620900  -0.292107   0.558212 -29.818100  -0.000572   0.005237 -19.858900  -0.005799   0.002867 -26.521400  -0.281344   0.563713 -26.522800   0.000092   0.007535 -17.664200  -0.001196   0.005150 -25.019600  -0.266474   0.570893 -37.531400   0.001372   0.000744 -24.995900   0.000471   0.000839  10.311700   1.746880   4.898260  68.954400   1.783690  -6.820600   1.420700  -8.382260   7.586720 -11.788000  -3.294660   0.633951 -40.165400  18.893600  54.905000  15.609600   0.003220  -0.009627   2.804820   0.004903  -0.004827  25.914000   4.464010   9.100920  21.493200  -0.001495   0.001058  15.045200   0.008468  -0.003749  27.883500   4.167270   7.821610  33.138300  -0.005473  -0.003324  22.070100  -0.005063  -0.001081  25.544700   1.585620   3.313510  25.590600  -0.000647  -0.000735  17.043300   0.000902  -0.003558  26.579300   0.741478   1.481640  39.883400  -0.004913  -0.007526  26.562400  -0.003806  -0.001407   2.346880   6.471920   1.521000   0.421415  -0.001981  13.127500  -0.757324  -2.790180   2.157110  -0.000000   0.000000   0.000000   1.997790   6.591590  -4.521960   0.303000   0.542687 -16.992000   0.596419  -2.909720   2.124260   0.000000   0.000000   0.000000
